<svg xmlns="http://www.w3.org/2000/svg" viewBox="0 0 900 340"
     role="img" text-rendering="geometricPrecision"
     font-family="'Inter', Arial, Helvetica, sans-serif">
  <title>Compound muscle action potential (CMAP) waveform</title>
  <desc>A compound muscle action potential recorded in nerve conduction studies: a biphasic deflection whose peak-to-peak amplitude, in millivolts, is marked between the positive peak and the negative trough. Illustrative synthetic waveform.</desc>
  <line x1="120" y1="40" x2="120" y2="300" stroke="#59636e" stroke-width="0.75"/>
  <line x1="120" y1="175" x2="820" y2="175" stroke="#59636e" stroke-width="0.75" stroke-dasharray="3 3"/>
  <text x="110" y="179" text-anchor="end" font-size="12" fill="#1f2328">0</text>
  <text x="46" y="145" font-size="13" font-weight="600" fill="#1f2328" transform="rotate(-90 46 145)">CMAP (mV)</text>
  <line x1="120.0" y1="300" x2="120.0" y2="304" stroke="#59636e" stroke-width="0.75"/>
  <text x="120.0" y="318" text-anchor="middle" font-size="11" fill="#59636e">0</text>
  <line x1="260.0" y1="300" x2="260.0" y2="304" stroke="#59636e" stroke-width="0.75"/>
  <text x="260.0" y="318" text-anchor="middle" font-size="11" fill="#59636e">2</text>
  <line x1="400.0" y1="300" x2="400.0" y2="304" stroke="#59636e" stroke-width="0.75"/>
  <text x="400.0" y="318" text-anchor="middle" font-size="11" fill="#59636e">4</text>
  <line x1="540.0" y1="300" x2="540.0" y2="304" stroke="#59636e" stroke-width="0.75"/>
  <text x="540.0" y="318" text-anchor="middle" font-size="11" fill="#59636e">6</text>
  <line x1="680.0" y1="300" x2="680.0" y2="304" stroke="#59636e" stroke-width="0.75"/>
  <text x="680.0" y="318" text-anchor="middle" font-size="11" fill="#59636e">8</text>
  <line x1="820.0" y1="300" x2="820.0" y2="304" stroke="#59636e" stroke-width="0.75"/>
  <text x="820.0" y="318" text-anchor="middle" font-size="11" fill="#59636e">10</text>
  <line x1="120" y1="300" x2="820" y2="300" stroke="#59636e" stroke-width="0.75"/>
  <text x="470" y="334" text-anchor="middle" font-size="13" font-weight="600" fill="#1f2328">Time (ms)</text>
  <path d="M 120.00 175.00 L 121.75 175.00 L 123.50 175.00 L 125.25 175.00 L 127.00 175.00 L 128.75 175.00 L 130.50 175.00 L 132.25 175.00 L 134.00 175.00 L 135.75 175.00 L 137.50 175.00 L 139.25 175.00 L 141.00 175.00 L 142.75 175.00 L 144.50 175.00 L 146.25 175.00 L 148.00 175.00 L 149.75 175.00 L 151.50 175.00 L 153.25 175.00 L 155.00 175.00 L 156.75 175.00 L 158.50 175.00 L 160.25 175.00 L 162.00 175.00 L 163.75 175.00 L 165.50 175.00 L 167.25 175.00 L 169.00 175.00 L 170.75 175.00 L 172.50 175.00 L 174.25 175.00 L 176.00 175.00 L 177.75 175.00 L 179.50 175.00 L 181.25 175.00 L 183.00 175.00 L 184.75 175.01 L 186.50 175.01 L 188.25 175.01 L 190.00 175.01 L 191.75 175.02 L 193.50 175.02 L 195.25 175.03 L 197.00 175.03 L 198.75 175.04 L 200.50 175.05 L 202.25 175.07 L 204.00 175.09 L 205.75 175.11 L 207.50 175.13 L 209.25 175.16 L 211.00 175.20 L 212.75 175.25 L 214.50 175.30 L 216.25 175.37 L 218.00 175.44 L 219.75 175.53 L 221.50 175.63 L 223.25 175.75 L 225.00 175.88 L 226.75 176.03 L 228.50 176.21 L 230.25 176.40 L 232.00 176.62 L 233.75 176.87 L 235.50 177.14 L 237.25 177.43 L 239.00 177.76 L 240.75 178.11 L 242.50 178.49 L 244.25 178.89 L 246.00 179.32 L 247.75 179.77 L 249.50 180.24 L 251.25 180.72 L 253.00 181.22 L 254.75 181.73 L 256.50 182.24 L 258.25 182.74 L 260.00 183.24 L 261.75 183.73 L 263.50 184.19 L 265.25 184.62 L 267.00 185.02 L 268.75 185.38 L 270.50 185.68 L 272.25 185.93 L 274.00 186.11 L 275.75 186.23 L 277.50 186.28 L 279.25 186.24 L 281.00 186.12 L 282.75 185.91 L 284.50 185.62 L 286.25 185.24 L 288.00 184.76 L 289.75 184.19 L 291.50 183.53 L 293.25 182.78 L 295.00 181.94 L 296.75 181.02 L 298.50 180.02 L 300.25 178.94 L 302.00 177.79 L 303.75 176.57 L 305.50 175.30 L 307.25 173.97 L 309.00 172.60 L 310.75 171.19 L 312.50 169.75 L 314.25 168.30 L 316.00 166.84 L 317.75 165.38 L 319.50 163.94 L 321.25 162.52 L 323.00 161.15 L 324.75 159.82 L 326.50 158.55 L 328.25 157.36 L 330.00 156.26 L 331.75 155.25 L 333.50 154.35 L 335.25 153.57 L 337.00 152.91 L 338.75 152.38 L 340.50 151.99 L 342.25 151.74 L 344.00 151.64 L 345.75 151.69 L 347.50 151.88 L 349.25 152.22 L 351.00 152.71 L 352.75 153.34 L 354.50 154.11 L 356.25 155.01 L 358.00 156.05 L 359.75 157.22 L 361.50 158.52 L 363.25 159.94 L 365.00 161.48 L 366.75 163.15 L 368.50 164.95 L 370.25 166.87 L 372.00 168.92 L 373.75 171.12 L 375.50 173.46 L 377.25 175.95 L 379.00 178.60 L 380.75 181.42 L 382.50 184.42 L 384.25 187.60 L 386.00 190.97 L 387.75 194.53 L 389.50 198.27 L 391.25 202.21 L 393.00 206.32 L 394.75 210.60 L 396.50 215.02 L 398.25 219.57 L 400.00 224.21 L 401.75 228.92 L 403.50 233.64 L 405.25 238.35 L 407.00 242.98 L 408.75 247.49 L 410.50 251.82 L 412.25 255.92 L 414.00 259.72 L 415.75 263.17 L 417.50 266.20 L 419.25 268.78 L 421.00 270.84 L 422.75 272.35 L 424.50 273.25 L 426.25 273.53 L 428.00 273.14 L 429.75 272.08 L 431.50 270.33 L 433.25 267.88 L 435.00 264.75 L 436.75 260.94 L 438.50 256.47 L 440.25 251.36 L 442.00 245.65 L 443.75 239.38 L 445.50 232.57 L 447.25 225.28 L 449.00 217.55 L 450.75 209.44 L 452.50 200.99 L 454.25 192.27 L 456.00 183.32 L 457.75 174.21 L 459.50 165.00 L 461.25 155.75 L 463.00 146.52 L 464.75 137.38 L 466.50 128.39 L 468.25 119.62 L 470.00 111.13 L 471.75 102.98 L 473.50 95.25 L 475.25 87.99 L 477.00 81.27 L 478.75 75.13 L 480.50 69.64 L 482.25 64.83 L 484.00 60.74 L 485.75 57.40 L 487.50 54.84 L 489.25 53.06 L 491.00 52.07 L 492.75 51.86 L 494.50 52.41 L 496.25 53.70 L 498.00 55.68 L 499.75 58.32 L 501.50 61.55 L 503.25 65.32 L 505.00 69.56 L 506.75 74.21 L 508.50 79.18 L 510.25 84.41 L 512.00 89.83 L 513.75 95.36 L 515.50 100.94 L 517.25 106.51 L 519.00 112.00 L 520.75 117.36 L 522.50 122.56 L 524.25 127.54 L 526.00 132.29 L 527.75 136.77 L 529.50 140.96 L 531.25 144.86 L 533.00 148.45 L 534.75 151.74 L 536.50 154.74 L 538.25 157.44 L 540.00 159.87 L 541.75 162.03 L 543.50 163.94 L 545.25 165.62 L 547.00 167.09 L 548.75 168.36 L 550.50 169.46 L 552.25 170.41 L 554.00 171.21 L 555.75 171.89 L 557.50 172.46 L 559.25 172.94 L 561.00 173.33 L 562.75 173.66 L 564.50 173.93 L 566.25 174.15 L 568.00 174.33 L 569.75 174.47 L 571.50 174.59 L 573.25 174.68 L 575.00 174.75 L 576.75 174.81 L 578.50 174.85 L 580.25 174.89 L 582.00 174.92 L 583.75 174.94 L 585.50 174.95 L 587.25 174.96 L 589.00 174.97 L 590.75 174.98 L 592.50 174.99 L 594.25 174.99 L 596.00 174.99 L 597.75 174.99 L 599.50 175.00 L 601.25 175.00 L 603.00 175.00 L 604.75 175.00 L 606.50 175.00 L 608.25 175.00 L 610.00 175.00 L 611.75 175.00 L 613.50 175.00 L 615.25 175.00 L 617.00 175.00 L 618.75 175.00 L 620.50 175.00 L 622.25 175.00 L 624.00 175.00 L 625.75 175.00 L 627.50 175.00 L 629.25 175.00 L 631.00 175.00 L 632.75 175.00 L 634.50 175.00 L 636.25 175.00 L 638.00 175.00 L 639.75 175.00 L 641.50 175.00 L 643.25 175.00 L 645.00 175.00 L 646.75 175.00 L 648.50 175.00 L 650.25 175.00 L 652.00 175.00 L 653.75 175.00 L 655.50 175.00 L 657.25 175.00 L 659.00 175.00 L 660.75 175.00 L 662.50 175.00 L 664.25 175.00 L 666.00 175.00 L 667.75 175.00 L 669.50 175.00 L 671.25 175.00 L 673.00 175.00 L 674.75 175.00 L 676.50 175.00 L 678.25 175.00 L 680.00 175.00 L 681.75 175.00 L 683.50 175.00 L 685.25 175.00 L 687.00 175.00 L 688.75 175.00 L 690.50 175.00 L 692.25 175.00 L 694.00 175.00 L 695.75 175.00 L 697.50 175.00 L 699.25 175.00 L 701.00 175.00 L 702.75 175.00 L 704.50 175.00 L 706.25 175.00 L 708.00 175.00 L 709.75 175.00 L 711.50 175.00 L 713.25 175.00 L 715.00 175.00 L 716.75 175.00 L 718.50 175.00 L 720.25 175.00 L 722.00 175.00 L 723.75 175.00 L 725.50 175.00 L 727.25 175.00 L 729.00 175.00 L 730.75 175.00 L 732.50 175.00 L 734.25 175.00 L 736.00 175.00 L 737.75 175.00 L 739.50 175.00 L 741.25 175.00 L 743.00 175.00 L 744.75 175.00 L 746.50 175.00 L 748.25 175.00 L 750.00 175.00 L 751.75 175.00 L 753.50 175.00 L 755.25 175.00 L 757.00 175.00 L 758.75 175.00 L 760.50 175.00 L 762.25 175.00 L 764.00 175.00 L 765.75 175.00 L 767.50 175.00 L 769.25 175.00 L 771.00 175.00 L 772.75 175.00 L 774.50 175.00 L 776.25 175.00 L 778.00 175.00 L 779.75 175.00 L 781.50 175.00 L 783.25 175.00 L 785.00 175.00 L 786.75 175.00 L 788.50 175.00 L 790.25 175.00 L 792.00 175.00 L 793.75 175.00 L 795.50 175.00 L 797.25 175.00 L 799.00 175.00 L 800.75 175.00 L 802.50 175.00 L 804.25 175.00 L 806.00 175.00 L 807.75 175.00 L 809.50 175.00 L 811.25 175.00 L 813.00 175.00 L 814.75 175.00 L 816.50 175.00 L 818.25 175.00 L 820.00 175.00" fill="none" stroke="#0969da" stroke-width="2" stroke-linejoin="round" stroke-linecap="round"/>
  <line x1="491.0" y1="49.0" x2="792" y2="49.0" stroke="#d55e00" stroke-width="1.25" stroke-dasharray="6 3"/>
  <line x1="428.0" y1="277.0" x2="792" y2="277.0" stroke="#d55e00" stroke-width="1.25" stroke-dasharray="6 3"/>
  <defs><marker id="amp" viewBox="0 0 10 10" refX="5" refY="5" markerWidth="7" markerHeight="7" orient="auto"><path d="M 0 1 L 9 5 L 0 9 z" fill="#d55e00"/></marker></defs>
  <line x1="792" y1="55.0" x2="792" y2="271.0" stroke="#d55e00" stroke-width="1.5" marker-start="url(#amp)" marker-end="url(#amp)"/>
  <text x="804" y="163" font-size="11" fill="#d55e00">amplitude</text>
  <text x="804" y="177" font-size="11" fill="#d55e00">(peak-to-peak)</text>
</svg>
